<svg version="1.1" id="Layer_1" xmlns="http://www.w3.org/2000/svg" xmlns:xlink="http://www.w3.org/1999/xlink" x="0px" y="0px"
	 width="100%" viewBox="0 0 284 167" enable-background="new 0 0 284 167" xml:space="preserve">
<path fill="none" opacity="1.000000" stroke="none" 
	d="
M23.000000,1.000000 
	C47.687561,1.000000 72.375122,1.000000 97.358093,1.385613 
	C95.877869,1.918293 94.102234,2.065362 92.249985,2.218776 
	C92.249985,15.149110 92.249985,27.887238 92.249985,41.227875 
	C117.944115,41.227875 143.394211,41.227875 168.844315,41.227875 
	C168.029831,42.793587 167.031387,43.456432 165.968719,43.991798 
	C156.680771,48.671009 147.493057,53.574196 138.025986,57.859428 
	C134.620590,59.400864 133.932236,61.296772 133.941437,64.623299 
	C134.036667,99.081993 134.000000,133.541046 134.000000,168.000000 
	C123.645775,168.000000 113.291542,168.000000 102.468658,167.531342 
	C102.000000,154.469406 102.000000,141.876129 102.000000,128.787445 
	C68.829216,128.787445 36.240208,128.787445 2.523462,128.787445 
	C14.353836,122.828590 24.993563,117.252480 35.849606,112.135277 
	C39.053089,110.625252 40.094639,108.964310 40.080418,105.489349 
	C39.945465,72.512421 40.003166,39.534721 39.989269,6.557249 
	C39.988667,5.120110 39.831345,3.683037 39.732594,2.000001 
	C37.589741,2.000001 35.773811,2.105373 33.974373,1.977904 
	C30.311539,1.718434 26.657602,1.333334 23.000000,1.000000 
z"/>
<path fill="none" opacity="1.000000" stroke="none" 
	d="
M191.000000,1.000000 
	C221.687561,1.000000 252.375122,1.000000 283.417908,1.342355 
	C273.031708,7.065005 262.364502,12.601756 251.512024,17.747839 
	C247.229980,19.778315 245.867096,22.470587 245.886108,27.209042 
	C246.074249,74.138756 246.000000,121.069527 246.000000,168.000000 
	C221.979111,168.000000 197.958206,168.000000 173.468658,167.531342 
	C173.000000,125.156921 173.000000,83.251160 173.000000,40.889397 
	C187.582703,40.889397 201.642776,40.889397 215.694489,40.889397 
	C215.694489,27.706194 215.694489,14.983479 215.694489,2.000000 
	C210.251816,2.000000 205.108749,2.114919 199.974167,1.956166 
	C196.975784,1.863461 193.990936,1.333333 191.000000,1.000000 
z"/>
<path fill="#FFFFFF" opacity="1.000000" stroke="none" 
	d="
M190.535355,1.000000 
	C193.990936,1.333333 196.975784,1.863461 199.974167,1.956166 
	C205.108749,2.114919 210.251816,2.000000 215.694489,2.000000 
	C215.694489,14.983479 215.694489,27.706194 215.694489,40.889397 
	C201.642776,40.889397 187.582703,40.889397 173.000000,40.889397 
	C173.000000,83.251160 173.000000,125.156921 173.000000,167.531342 
	C160.312439,168.000000 147.624878,168.000000 134.468658,168.000000 
	C134.000000,133.541046 134.036667,99.081993 133.941437,64.623299 
	C133.932236,61.296772 134.620590,59.400864 138.025986,57.859428 
	C147.493057,53.574196 156.680771,48.671009 165.968719,43.991798 
	C167.031387,43.456432 168.029831,42.793587 168.844315,41.227875 
	C143.394211,41.227875 117.944115,41.227875 92.249985,41.227875 
	C92.249985,27.887238 92.249985,15.149110 92.249985,2.218776 
	C94.102234,2.065362 95.877869,1.918293 97.826752,1.385613 
	C105.354256,1.000000 112.708504,1.000000 120.719757,1.395389 
	C139.262558,1.858485 157.148346,1.936798 175.034195,1.951678 
	C175.689194,1.952222 176.344727,1.331298 177.000000,0.999999 
	C181.356903,1.000000 185.713806,1.000000 190.535355,1.000000 
z"/>
<path fill="#FFFFFF" opacity="1.000000" stroke="none" 
	d="
M22.531218,1.000000 
	C26.657602,1.333334 30.311539,1.718434 33.974373,1.977904 
	C35.773811,2.105373 37.589741,2.000001 39.732594,2.000001 
	C39.831345,3.683037 39.988667,5.120110 39.989269,6.557249 
	C40.003166,39.534721 39.945465,72.512421 40.080418,105.489349 
	C40.094639,108.964310 39.053089,110.625252 35.849606,112.135277 
	C24.993563,117.252480 14.353836,122.828590 2.523462,128.787445 
	C36.240208,128.787445 68.829216,128.787445 102.000000,128.787445 
	C102.000000,141.876129 102.000000,154.469406 102.000000,167.531342 
	C68.384209,168.000000 34.768421,168.000000 1.076316,168.000000 
	C1.076316,112.333382 1.076316,56.666706 1.076316,1.000000 
	C8.083637,1.000000 15.073036,1.000000 22.531218,1.000000 
z"/>
<path fill="#FFFFFF" opacity="1.000000" stroke="none" 
	d="
M246.468658,168.000000 
	C246.000000,121.069527 246.074249,74.138756 245.886108,27.209042 
	C245.867096,22.470587 247.229980,19.778315 251.512024,17.747839 
	C262.364502,12.601756 273.031708,7.065005 283.886566,1.342355 
	C284.333313,2.329805 284.956970,3.659347 284.958191,4.989451 
	C285.007141,59.207672 285.000000,113.425941 285.000000,168.000000 
	C272.314667,168.000000 259.625977,168.000000 246.468658,168.000000 
z"/>
<path fill="none" opacity="1.000000" stroke="none" 
	d="
M176.531342,0.999999 
	C176.344727,1.331298 175.689194,1.952222 175.034195,1.951678 
	C157.148346,1.936798 139.262558,1.858485 121.188385,1.395389 
	C139.354233,1.000000 157.708450,1.000000 176.531342,0.999999 
z"/>
</svg>